<svg xmlns="http://www.w3.org/2000/svg" version="1.1" xmlns:xlink="http://www.w3.org/1999/xlink" xmlns:svgjs="http://svgjs.com/svgjs" width="512" height="512" x="0" y="0" viewBox="0 0 64 64" style="enable-background:new 0 0 512 512" xml:space="preserve" class=""><g><path xmlns="http://www.w3.org/2000/svg" d="M12,12H37a2,2,0,0,0,4,0V10a5.51088,5.51088,0,1,1,11-.5V26a2,2,0,0,1-4,0V10a2,2,0,0,0-4,0V26a6,6,0,0,0,12,0V12h4V37H51a6.00657,6.00657,0,0,0-6,6v9H12ZM49,49.17139V43a2.00229,2.00229,0,0,1,2-2h6.17151l-4.08557,4.08569ZM52,60H4V20H8V53a3.00328,3.00328,0,0,0,3,3H47a2.0488,2.0488,0,0,0,1.41406-.58594L52,51.82813ZM61,8H55.87A9.48731,9.48731,0,0,0,37.13,8H11a3.00882,3.00882,0,0,0-3,3v5H3a3.00882,3.00882,0,0,0-3,3V61a3.00882,3.00882,0,0,0,3,3H53a3.00882,3.00882,0,0,0,3-3V47.83l7.11712-7.135a2.98619,2.98619,0,0,0,.876-2.10893C64,33.06965,64,11,64,11A3.00879,3.00879,0,0,0,61,8Z" fill="#da76a8" data-original="#000000" class=""></path><path xmlns="http://www.w3.org/2000/svg" d="M36.93652,26a10,10,0,1,0-10,10A10.01145,10.01145,0,0,0,36.93652,26Zm-10,6a6,6,0,1,1,6-6A6.00657,6.00657,0,0,1,26.93652,32Z" fill="#da76a8" data-original="#000000" class=""></path><path xmlns="http://www.w3.org/2000/svg" d="M18,48H36a2.0001,2.0001,0,0,0,2-2V41a5.00588,5.00588,0,0,0-5-5H21a5.00588,5.00588,0,0,0-5,5v5A2.0001,2.0001,0,0,0,18,48Zm2-7a1.001,1.001,0,0,1,1-1H33a1.001,1.001,0,0,1,1,1v3H20Z" fill="#da76a8" data-original="#000000" class=""></path><circle xmlns="http://www.w3.org/2000/svg" cx="40.61702" cy="34" r="2" fill="#da76a8" data-original="#000000" class=""></circle></g></svg>